<svg width="26" height="26" viewBox="0 0 26 26" fill="none" xmlns="http://www.w3.org/2000/svg">
<g clip-path="url(#clip0_1_1113)">
<path d="M19.1208 6.87916C17.55 5.30833 15.3942 4.33333 13 4.33333C8.21168 4.33333 4.34418 8.21166 4.34418 13C4.34418 17.7883 8.21168 21.6667 13 21.6667C17.0408 21.6667 20.41 18.9042 21.3742 15.1667H19.1208C18.2325 17.6908 15.8275 19.5 13 19.5C9.41418 19.5 6.50001 16.5858 6.50001 13C6.50001 9.41416 9.41418 6.49999 13 6.49999C14.7983 6.49999 16.4017 7.24749 17.5717 8.42833L14.0833 11.9167H21.6667V4.33333L19.1208 6.87916Z" fill="white"/>
</g>
<defs>
<clipPath id="clip0_1_1113">
<rect width="26" height="26" fill="white"/>
</clipPath>
</defs>
</svg>
