<svg width="26" height="26" viewBox="0 0 26 26" fill="none" xmlns="http://www.w3.org/2000/svg">
<path d="M19.9031 10.9856L20.1103 10.821C20.2656 10.6753 20.4497 10.5636 20.651 10.4932C20.8522 10.4229 21.066 10.3953 21.2785 10.4123C21.4911 10.4293 21.6977 10.4905 21.8851 10.592C22.0725 10.6935 22.2364 10.8331 22.3664 11.0016C22.4285 11.0734 22.4595 11.0794 22.5216 11.0175C22.5626 10.9706 22.6096 10.9347 22.6507 10.8888C22.8697 10.6679 23.1499 10.5171 23.4554 10.4557C23.7608 10.3943 24.0777 10.4252 24.3655 10.5443C24.6533 10.6635 24.8989 10.8655 25.0709 11.1245C25.2429 11.3836 25.3336 11.6879 25.3312 11.9985C25.3412 13.4795 25.3362 14.9554 25.3362 16.4364C25.3459 16.5504 25.3307 16.6652 25.2917 16.7728C25.2526 16.8804 25.1906 16.9782 25.1099 17.0596C25.0292 17.141 24.9317 17.204 24.8243 17.2442C24.7168 17.2844 24.6019 17.3009 24.4874 17.2926C24.2802 17.2926 24.073 17.2766 23.8668 17.2976C23.6606 17.3185 23.5926 17.2507 23.5926 17.0291C23.6026 15.5841 23.5976 14.1351 23.5976 12.6951V12.5115C23.5926 12.1762 23.4574 12.0365 23.1371 12.0215C23.0724 12.0146 23.007 12.0211 22.9449 12.0406C22.8829 12.0601 22.8255 12.0921 22.7764 12.1348C22.7274 12.1774 22.6877 12.2297 22.6598 12.2883C22.632 12.347 22.6166 12.4107 22.6146 12.4756C22.6096 12.5424 22.6146 12.6152 22.6146 12.6821V16.4234C22.6271 16.5395 22.6133 16.657 22.5743 16.7671C22.5353 16.8773 22.4721 16.9773 22.3893 17.0599C22.3064 17.1425 22.2061 17.2055 22.0956 17.2444C21.9851 17.2833 21.8673 17.297 21.7508 17.2846C21.4715 17.2796 21.0932 17.4084 20.933 17.2277C20.7929 17.073 20.886 16.7068 20.886 16.4294V12.5853C20.886 12.1312 20.5907 11.8987 20.2083 12.0534C20.104 12.0961 20.0167 12.1718 19.9597 12.2688C19.9028 12.3658 19.8793 12.4787 19.893 12.5903C19.898 13.7878 19.893 14.9794 19.893 16.1769V16.4603C19.8977 16.5701 19.8792 16.6797 19.8388 16.782C19.7985 16.8842 19.7372 16.977 19.6587 17.0542C19.5803 17.1315 19.4866 17.1915 19.3835 17.2305C19.2804 17.2695 19.1703 17.2866 19.0602 17.2806C18.853 17.2856 18.6459 17.2647 18.4397 17.2856C18.2174 17.3066 18.1494 17.2447 18.1554 17.0072C18.1654 14.9794 18.1604 12.9516 18.1604 10.9198C18.1604 10.8319 18.1654 10.7491 18.1604 10.6613C18.1504 10.5475 18.1964 10.5116 18.3105 10.5116C18.787 10.5166 19.2574 10.5166 19.7339 10.5116C19.853 10.5116 19.9101 10.5425 19.8991 10.6713C19.8927 10.776 19.894 10.8811 19.9031 10.9856Z" fill="#02B9EF"/>
<path d="M8.92803 13.7809V15.8965C8.95115 16.0861 8.93061 16.2784 8.86796 16.4588C8.80532 16.6392 8.70222 16.803 8.56652 16.9377C8.43082 17.0724 8.26609 17.1745 8.08487 17.2362C7.90364 17.2979 7.71069 17.3175 7.52069 17.2937C7.12031 17.2937 6.70791 17.2986 6.30453 17.2937C6.11818 17.3014 5.93215 17.272 5.75735 17.2071C5.58255 17.1423 5.4225 17.0432 5.28658 16.9159C5.15066 16.7886 5.0416 16.6355 4.96579 16.4656C4.88999 16.2957 4.84897 16.1124 4.84513 15.9265C4.81241 15.3422 4.81074 14.7566 4.84013 14.1721C4.85372 13.7799 5.02239 13.409 5.30931 13.1403C5.59624 12.8716 5.97812 12.727 6.37159 12.7381C6.5938 12.7331 6.82202 12.7381 7.04423 12.7381C7.26644 12.7381 7.34452 12.6093 7.33952 12.4028C7.33451 12.1962 7.24643 12.1034 7.03923 12.1134C6.80634 12.1187 6.57279 12.1187 6.33856 12.1134C6.21997 12.1257 6.10009 12.1116 5.9877 12.0719C5.8753 12.0322 5.77322 11.9679 5.6889 11.8839C5.60459 11.7998 5.54016 11.698 5.50034 11.586C5.46052 11.4739 5.44629 11.3544 5.45872 11.2362C5.45872 11.0086 5.35863 10.7043 5.50577 10.5705C5.63489 10.4568 5.93017 10.5296 6.15238 10.5296C6.73193 10.5246 7.30648 10.5296 7.88604 10.5296C8.02443 10.5228 8.16273 10.5449 8.29203 10.5946C8.42132 10.6442 8.53874 10.7204 8.63672 10.8181C8.7347 10.9157 8.81107 11.0328 8.8609 11.1617C8.91073 11.2906 8.93291 11.4285 8.92603 11.5665C8.93604 12.3 8.92803 13.0414 8.92803 13.7809ZM7.34452 14.9525V14.694C7.34452 14.1681 7.34452 14.1681 6.81702 14.1881C6.76091 14.1831 6.70438 14.1905 6.65149 14.2098C6.5986 14.2291 6.55064 14.2599 6.51105 14.2998C6.47145 14.3398 6.4412 14.388 6.42246 14.4409C6.40372 14.4939 6.39694 14.5503 6.40262 14.6062C6.39761 14.8228 6.39761 15.0343 6.40262 15.2509C6.40762 15.6221 6.57378 15.7209 7.1113 15.7359C7.51168 15.7458 7.31149 15.4674 7.34452 15.3127C7.35291 15.1928 7.35358 15.0725 7.34652 14.9525H7.34452Z" fill="#06306F"/>
<path d="M13.5369 13.2182C13.5369 14.0076 13.5469 14.802 13.5319 15.5913C13.5619 15.884 13.5077 16.1792 13.3757 16.4424C13.2436 16.7055 13.0392 16.9257 12.7862 17.0773C12.5514 17.2067 12.2887 17.2776 12.0205 17.2838C11.4249 17.2938 10.8303 17.2838 10.2348 17.2938C10.0896 17.2938 10.0586 17.2419 10.0636 17.1132C10.0736 16.8966 10.0586 16.6851 10.0686 16.4685C10.0709 16.2731 10.1494 16.0862 10.2875 15.9475C10.4255 15.8087 10.6123 15.7289 10.8083 15.7251C11.0776 15.7151 11.3418 15.7201 11.6091 15.7251C11.8263 15.7251 11.9454 15.6372 11.9454 15.4047C11.9454 15.1722 11.8313 15.0844 11.6141 15.0794C11.2523 15.1053 10.8886 15.0845 10.5321 15.0175C10.2331 14.941 9.96667 14.7708 9.7719 14.5321C9.57714 14.2934 9.46432 13.9987 9.45003 13.6913C9.419 12.6853 9.44003 11.6784 9.43403 10.6725C9.43403 10.5587 9.47006 10.5228 9.58416 10.5278C10.0086 10.5328 10.428 10.5378 10.8524 10.5278C11.0385 10.5228 11.0125 10.6276 11.0125 10.7394V13.0097C11.0125 13.34 11.1677 13.5156 11.4579 13.5256C11.7993 13.5356 11.9494 13.3969 11.9494 13.0506C11.9494 12.2872 11.9544 11.5178 11.9444 10.7553C11.9444 10.5747 11.9915 10.5228 12.1716 10.5288C12.549 10.5448 12.9324 10.5498 13.3107 10.5288C13.5179 10.5188 13.5489 10.5957 13.5439 10.7763C13.5319 11.5876 13.5369 12.4029 13.5369 13.2182Z" fill="#06306F"/>
<path d="M0.350094 14.3909V11.8621C0.334055 11.6828 0.357754 11.5023 0.41951 11.3331C0.481267 11.164 0.579571 11.0105 0.707458 10.8835C0.835345 10.7565 0.989684 10.659 1.15954 10.5981C1.3294 10.5371 1.51063 10.5142 1.69037 10.5309C2.23235 10.4954 2.77643 10.5091 3.31592 10.5718C3.63884 10.6253 3.93125 10.794 4.13876 11.0464C4.34627 11.2988 4.45474 11.6178 4.444 11.9439C4.449 12.6924 4.444 13.4408 4.444 14.1883C4.46253 14.391 4.43693 14.5953 4.36895 14.7872C4.30096 14.9791 4.1922 15.1541 4.05011 15.3002C3.90801 15.4463 3.73593 15.5601 3.54564 15.6338C3.35535 15.7075 3.15134 15.7393 2.94757 15.7271C2.6633 15.7371 2.37803 15.7321 2.09376 15.7271C1.96463 15.7221 1.90758 15.763 1.91258 15.9028C1.92259 16.1093 1.91759 16.3159 1.91258 16.5215C1.91461 16.6225 1.89622 16.7229 1.85852 16.8167C1.82082 16.9106 1.76457 16.9958 1.69313 17.0675C1.62168 17.1392 1.5365 17.1959 1.44266 17.2341C1.34881 17.2723 1.24821 17.2912 1.14685 17.2899C0.887606 17.2949 0.562297 17.3987 0.396138 17.249C0.22998 17.0993 0.355099 16.779 0.349094 16.5315C0.34509 15.8199 0.350094 15.1024 0.350094 14.3909ZM1.91258 13.1265V13.6165C1.91258 14.1993 1.91258 14.1993 2.49714 14.1484C2.54948 14.1514 2.60184 14.1429 2.65055 14.1235C2.69925 14.1042 2.74312 14.0745 2.77908 14.0364C2.81504 13.9984 2.84221 13.953 2.85869 13.9034C2.87518 13.8537 2.88057 13.8011 2.8745 13.7492C2.87951 13.4598 2.86449 13.1664 2.87951 12.877C2.91054 12.0407 2.75539 12.1236 2.07174 12.1186C1.94762 12.1186 1.90658 12.1545 1.90658 12.2783C1.91859 12.5587 1.91258 12.8421 1.91258 13.1265Z" fill="#06306F"/>
<path d="M15.0023 14.399C15.0023 13.7124 14.9973 13.0209 15.0073 12.3353C15.0073 12.1756 14.9713 12.1077 14.7951 12.1137C14.5619 12.1237 14.2516 12.1916 14.1224 12.0778C13.9623 11.9281 14.0864 11.6078 14.0654 11.3603V11.3054C14.0654 11.0629 13.9873 10.7795 14.0914 10.5989C14.1955 10.4182 14.5108 10.532 14.733 10.4751C15.1526 10.3633 15.5202 10.1097 15.773 9.7576C15.9464 9.51876 16.2031 9.35321 16.4927 9.29355C16.6528 9.26261 16.7519 9.28358 16.7409 9.49315C16.7249 9.78255 16.7409 10.0759 16.7359 10.3703C16.7309 10.4941 16.777 10.535 16.9011 10.53C17.1083 10.525 17.3155 10.535 17.5217 10.525C17.6458 10.52 17.6868 10.5659 17.6818 10.6897C17.6768 11.1128 17.6768 11.5309 17.6818 11.9541C17.6818 12.0728 17.6508 12.1347 17.5217 12.1187C17.4957 12.1161 17.4696 12.1161 17.4436 12.1187C17.2164 12.1397 16.9001 12.0189 16.781 12.1706C16.6618 12.3223 16.7399 12.6147 16.7399 12.8462C16.7399 14.2493 16.7349 15.6484 16.7449 17.0515C16.7449 17.2511 16.6929 17.31 16.4967 17.294C16.3005 17.2781 16.1193 17.294 15.9271 17.289C15.802 17.2918 15.6776 17.2688 15.5618 17.2214C15.446 17.174 15.3413 17.1032 15.2543 17.0135C15.1672 16.9238 15.0998 16.8172 15.056 16.7002C15.0123 16.5833 14.9933 16.4586 15.0003 16.334L15.0023 14.399Z" fill="#02B9EF"/>
</svg>
