<svg width="26" height="26" viewBox="0 0 26 26" fill="none" xmlns="http://www.w3.org/2000/svg">
<path d="M19.847 19.1174C12.4743 22.6372 7.89854 19.6922 4.96901 17.9027C4.78803 17.7901 4.4793 17.9289 4.74738 18.2367C5.79168 19.4452 7.07056 20.4275 8.50592 21.1235C9.94127 21.8195 11.503 22.2146 13.0956 22.2847C14.3762 22.3199 15.6511 22.1007 16.847 21.6398C18.0428 21.1789 19.1361 20.4853 20.0638 19.599C20.3725 19.2038 20.1548 18.9854 19.8422 19.1135L19.847 19.1174ZM21.9172 17.9697C21.7236 17.7114 20.7132 17.6629 20.0783 17.7406C19.4435 17.8183 18.4921 18.2047 18.5753 18.4387C18.6179 18.5261 18.7041 18.4873 19.1405 18.4474C19.577 18.4076 20.8003 18.2533 21.0558 18.5834C21.3113 18.9135 20.6687 20.5253 20.5477 20.7826C20.4267 21.04 20.5913 21.1079 20.8052 20.9361C21.1799 20.59 21.4709 20.1625 21.6558 19.6864C21.9144 19.154 22.0056 18.5553 21.9172 17.9697Z" fill="#F4B459"/>
<path d="M17.9801 13.5285V7.63463C17.9801 6.6219 17.0036 4.33331 13.4953 4.33331C9.98706 4.33331 8.12017 6.53257 8.12017 8.51434L11.0526 8.77747C11.0526 8.77747 11.7059 6.79668 13.2215 6.79668C13.4201 6.77135 13.6219 6.79341 13.8105 6.86107C13.9991 6.92873 14.1691 7.04008 14.3067 7.18607C14.4442 7.33206 14.5455 7.50857 14.6023 7.70124C14.6591 7.89391 14.6698 8.09731 14.6335 8.2949V9.57659C12.6911 9.64261 7.86951 10.199 7.86951 14.2781C7.86951 18.6649 13.386 18.8494 15.1987 16.0142C15.2696 16.1337 15.353 16.2453 15.4474 16.3472C16.1132 17.0492 17.0017 17.8862 17.0017 17.8862L19.2654 15.6423C19.2654 15.6423 17.9801 14.6257 17.9801 13.5285ZM11.2733 13.7353C11.2733 11.8506 13.2853 11.469 14.6344 11.4244V13.0459C14.6344 16.2588 11.2733 15.7724 11.2733 13.7353Z" fill="black"/>
</svg>
